<svg width="150" height="59" viewBox="0 0 150 59" fill="none" xmlns="http://www.w3.org/2000/svg">
<path d="M48.9107 25.8377L48.2013 25.8612C48.1074 25.8646 48.0604 25.8194 48.0604 25.7255L48.063 25.2691C48.063 25.1734 48.11 25.1256 48.2039 25.1256L49.761 25.1152C49.8705 25.1152 49.9244 25.1691 49.9227 25.2769C49.9123 26.5376 49.3054 27.1879 48.1022 27.2279C46.1225 27.2931 45.3505 24.6874 47.0641 23.6807C47.8083 23.2425 48.6195 23.3425 49.4976 23.9806C49.6784 24.111 49.6741 24.2345 49.4845 24.351L49.1924 24.531C49.0376 24.6248 48.8933 24.6101 48.7594 24.4866C48.1543 23.9258 47.2232 24.2806 46.9989 25.0396C46.6389 26.2706 48.4673 26.9227 49.0098 26.0072C49.0201 25.99 49.0255 25.9703 49.0256 25.9503C49.0257 25.9302 49.0204 25.9105 49.0103 25.8932C49.0002 25.8759 48.9856 25.8616 48.9681 25.8518C48.9506 25.8421 48.9308 25.8372 48.9107 25.8377Z" fill="#626261"/>
<path d="M90.1466 25.3233C90.1466 25.8317 89.9446 26.3193 89.5851 26.6789C89.2256 27.0384 88.738 27.2404 88.2296 27.2404C87.7211 27.2404 87.2335 27.0384 86.874 26.6789C86.5145 26.3193 86.3125 25.8317 86.3125 25.3233C86.3125 24.8149 86.5145 24.3273 86.874 23.9677C87.2335 23.6082 87.7211 23.4063 88.2296 23.4062C88.738 23.4062 89.2256 23.6082 89.5851 23.9677C89.9446 24.3273 90.1466 24.8149 90.1466 25.3233ZM89.3172 25.3207C89.3172 25.0322 89.2026 24.7556 88.9986 24.5516C88.7947 24.3477 88.518 24.2331 88.2296 24.2331C87.9411 24.2331 87.6645 24.3477 87.4605 24.5516C87.2565 24.7556 87.1419 25.0322 87.1419 25.3207C87.1419 25.6092 87.2565 25.8858 87.4605 26.0898C87.6645 26.2937 87.9411 26.4083 88.2296 26.4083C88.518 26.4083 88.7947 26.2937 88.9986 26.0898C89.2026 25.8858 89.3172 25.6092 89.3172 25.3207Z" fill="#626261"/>
<path d="M123.068 26.3126C123.108 26.2902 123.142 26.2565 123.164 26.2154C123.186 26.1744 123.196 26.1278 123.193 26.0813C123.189 26.0348 123.172 25.9903 123.144 25.9531C123.116 25.916 123.077 25.8877 123.034 25.8718C122.53 25.6867 121.792 25.5589 121.497 25.0842C121.059 24.3799 121.529 23.5531 122.319 23.4384C122.992 23.3427 123.521 23.5835 123.907 24.1608C123.928 24.1939 123.922 24.2208 123.889 24.2417L123.279 24.6329C123.247 24.6538 123.221 24.6486 123.198 24.6173C122.946 24.2434 122.649 24.1382 122.309 24.3017C122.265 24.3222 122.228 24.3551 122.203 24.3961C122.178 24.4372 122.165 24.4847 122.167 24.5329C122.168 24.581 122.183 24.6277 122.211 24.6673C122.238 24.7068 122.277 24.7375 122.322 24.7555C122.633 24.8842 122.948 25.0016 123.266 25.1076C124.223 25.4258 124.299 26.6986 123.367 27.0925C122.622 27.4055 121.696 27.2307 121.244 26.503C121.187 26.4109 121.203 26.3335 121.294 26.2709L121.685 26.0049C121.767 25.951 121.846 25.9544 121.922 26.0153C122.295 26.31 122.543 26.6048 123.068 26.3126Z" fill="#626261"/>
<path d="M45.4985 23.4824H44.8986C44.8338 23.4824 44.7812 23.535 44.7812 23.5998V27.0479C44.7812 27.1127 44.8338 27.1652 44.8986 27.1652H45.4985C45.5633 27.1652 45.6159 27.1127 45.6159 27.0479V23.5998C45.6159 23.535 45.5633 23.4824 45.4985 23.4824Z" fill="#626261"/>
<path d="M51.1132 23.487L50.4402 23.4881C50.3913 23.4882 50.3516 23.528 50.3517 23.577L50.3578 27.072C50.3579 27.121 50.3977 27.1606 50.4467 27.1605L51.1196 27.1593C51.1686 27.1593 51.2082 27.1195 51.2081 27.0705L51.202 23.5755C51.2019 23.5265 51.1621 23.4869 51.1132 23.487Z" fill="#626261"/>
<path d="M53.3882 24.3982L53.3934 27.056C53.3934 27.0844 53.3822 27.1116 53.3621 27.1316C53.3421 27.1517 53.3149 27.163 53.2865 27.163L52.6475 27.1656C52.6191 27.1656 52.5919 27.1543 52.5719 27.1342C52.5518 27.1142 52.5405 27.087 52.5405 27.0586L52.5614 24.4061C52.5614 24.3777 52.5501 24.3505 52.5301 24.3304C52.51 24.3104 52.4828 24.2991 52.4545 24.2991L51.7007 24.2939C51.6723 24.2939 51.6451 24.2826 51.6251 24.2626C51.605 24.2425 51.5938 24.2153 51.5938 24.187L51.599 23.5923C51.599 23.5782 51.6017 23.5643 51.6071 23.5514C51.6125 23.5384 51.6204 23.5266 51.6303 23.5167C51.6402 23.5067 51.652 23.4989 51.665 23.4935C51.678 23.4881 51.6919 23.4854 51.7059 23.4854L54.2385 23.4984C54.2669 23.4984 54.2941 23.5097 54.3141 23.5297C54.3342 23.5498 54.3454 23.577 54.3454 23.6053L54.3402 24.1922C54.3402 24.2062 54.3375 24.2201 54.3321 24.2331C54.3267 24.2461 54.3188 24.2579 54.3089 24.2678C54.299 24.2777 54.2872 24.2856 54.2742 24.291C54.2612 24.2964 54.2473 24.2991 54.2333 24.2991L53.4978 24.2887C53.4833 24.2883 53.4689 24.2909 53.4554 24.2963C53.442 24.3017 53.4298 24.3097 53.4195 24.32C53.4093 24.3302 53.4012 24.3424 53.3958 24.3559C53.3904 24.3693 53.3879 24.3838 53.3882 24.3982Z" fill="#626261"/>
<path d="M56.3611 26.5784H55.396C55.342 26.5785 55.2897 26.5973 55.2478 26.6315C55.206 26.6657 55.1773 26.7133 55.1665 26.7662C55.0813 27.1731 54.7535 27.294 54.1832 27.1288C54.138 27.1149 54.1232 27.0862 54.1388 27.0427L55.2995 23.6389C55.3325 23.5416 55.4004 23.4929 55.503 23.4929L56.2724 23.4903C56.3767 23.4885 56.4454 23.5372 56.4784 23.6363L57.6339 27.0244C57.6513 27.0783 57.633 27.1131 57.5791 27.1288C57.0349 27.2974 56.7132 27.1801 56.6141 26.7767C56.5828 26.6445 56.4984 26.5784 56.3611 26.5784ZM55.4951 25.6968C55.4915 25.7088 55.4907 25.7214 55.4928 25.7337C55.4948 25.746 55.4997 25.7577 55.507 25.7678C55.5144 25.7779 55.5239 25.7862 55.535 25.792C55.546 25.7978 55.5583 25.8009 55.5708 25.8012L56.2098 25.7986C56.2223 25.7983 56.2345 25.7951 56.2456 25.7894C56.2566 25.7836 56.2662 25.7753 56.2735 25.7652C56.2808 25.7551 56.2857 25.7434 56.2878 25.7311C56.2899 25.7188 56.289 25.7062 56.2854 25.6942L55.9646 24.6379C55.9601 24.6206 55.95 24.6052 55.9358 24.5943C55.9217 24.5834 55.9043 24.5774 55.8864 24.5774C55.8685 24.5774 55.8511 24.5834 55.8369 24.5943C55.8228 24.6052 55.8126 24.6206 55.8081 24.6379L55.4951 25.6968Z" fill="#626261"/>
<path d="M58.9676 26.3675L60.0526 26.3518C60.0686 26.3515 60.0845 26.3543 60.0994 26.3602C60.1142 26.3661 60.1278 26.3749 60.1392 26.386C60.1506 26.3972 60.1597 26.4106 60.1659 26.4253C60.172 26.44 60.1752 26.4558 60.1752 26.4718L60.1778 27.043C60.1778 27.0588 60.1747 27.0744 60.1687 27.0889C60.1627 27.1035 60.1538 27.1167 60.1427 27.1279C60.1316 27.139 60.1183 27.1478 60.1038 27.1539C60.0892 27.1599 60.0736 27.163 60.0579 27.163L58.1512 27.1656C58.1194 27.1656 58.0889 27.153 58.0664 27.1305C58.0439 27.108 58.0313 27.0775 58.0313 27.0456L58.0234 23.6132C58.0234 23.5818 58.0357 23.5517 58.0577 23.5293C58.0796 23.5068 58.1094 23.4939 58.1408 23.4932L58.7303 23.4776C58.7462 23.4772 58.7621 23.4801 58.777 23.4859C58.7918 23.4918 58.8054 23.5006 58.8168 23.5118C58.8282 23.5229 58.8373 23.5363 58.8435 23.551C58.8497 23.5658 58.8529 23.5816 58.8529 23.5975L58.845 26.2475C58.845 26.2635 58.8482 26.2793 58.8544 26.294C58.8606 26.3088 58.8697 26.3221 58.8811 26.3333C58.8925 26.3445 58.906 26.3532 58.9209 26.3591C58.9358 26.365 58.9516 26.3678 58.9676 26.3675Z" fill="#626261"/>
<path d="M64.1121 26.2601C64.4007 25.9488 64.7137 25.9775 65.051 26.3461C65.0781 26.3758 65.0929 26.4145 65.0924 26.4543C65.092 26.4941 65.0762 26.532 65.0484 26.56C63.5878 28.0676 61.1361 26.8078 61.7542 24.7499C62.2081 23.2293 64.086 22.9815 65.0954 24.1422C65.1493 24.2048 65.1415 24.2578 65.0719 24.3013L64.5816 24.6117C64.4911 24.669 64.4111 24.6569 64.3416 24.5751C63.6895 23.7901 62.495 24.3482 62.5158 25.342C62.5297 26.1018 62.961 26.4548 63.8095 26.4009C63.9295 26.394 64.0303 26.347 64.1121 26.2601Z" fill="#626261"/>
<path d="M69.1883 25.3236C69.1883 25.575 69.1387 25.824 69.0425 26.0562C68.9463 26.2885 68.8053 26.4996 68.6275 26.6773C68.4498 26.8551 68.2387 26.9961 68.0064 27.0923C67.7742 27.1886 67.5252 27.2381 67.2738 27.2381C66.7661 27.2381 66.2791 27.0364 65.9201 26.6773C65.5611 26.3183 65.3594 25.8314 65.3594 25.3236C65.3594 24.8159 65.5611 24.3289 65.9201 23.9699C66.2791 23.6109 66.7661 23.4092 67.2738 23.4092C67.5252 23.4092 67.7742 23.4587 68.0064 23.5549C68.2387 23.6511 68.4498 23.7921 68.6275 23.9699C68.8053 24.1477 68.9463 24.3587 69.0425 24.591C69.1387 24.8233 69.1883 25.0722 69.1883 25.3236ZM68.3667 25.321C68.3667 25.0319 68.2518 24.7546 68.0473 24.5501C67.8429 24.3456 67.5656 24.2308 67.2764 24.2308C66.9873 24.2308 66.71 24.3456 66.5055 24.5501C66.301 24.7546 66.1862 25.0319 66.1862 25.321C66.1862 25.6102 66.301 25.8875 66.5055 26.0919C66.71 26.2964 66.9873 26.4113 67.2764 26.4113C67.5656 26.4113 67.8429 26.2964 68.0473 26.0919C68.2518 25.8875 68.3667 25.6102 68.3667 25.321Z" fill="#626261"/>
<path d="M74.946 25.2276L74.9121 23.647C74.9103 23.5479 74.959 23.4975 75.0581 23.4957L75.6346 23.4879C75.7302 23.4879 75.778 23.5348 75.778 23.6287V27.0325C75.778 27.0671 75.7643 27.1003 75.7398 27.1247C75.7154 27.1492 75.6822 27.1629 75.6476 27.1629L75.2746 27.1655C75.1825 27.1673 75.1103 27.1299 75.0581 27.0534L73.8975 25.405C73.7636 25.2154 73.6984 25.2363 73.7019 25.4676L73.7227 27.0664C73.7231 27.0789 73.7208 27.0914 73.7161 27.1031C73.7114 27.1148 73.7044 27.1255 73.6954 27.1345C73.6864 27.1435 73.6756 27.1506 73.6638 27.1555C73.6519 27.1604 73.6391 27.1629 73.6262 27.1629H73.0263C72.9307 27.1629 72.8829 27.1151 72.8829 27.0195L72.875 23.6861C72.8733 23.5905 72.9185 23.5262 73.0107 23.4931C73.2906 23.3957 73.5132 23.4679 73.6784 23.7096C74.0348 24.2295 74.4096 24.752 74.8025 25.2772C74.9017 25.411 74.9495 25.3945 74.946 25.2276Z" fill="#626261"/>
<path d="M77.3322 26.3727L78.6102 26.3518C78.6245 26.3515 78.6387 26.354 78.6519 26.3592C78.6652 26.3644 78.6773 26.3722 78.6875 26.3822C78.6977 26.3922 78.7059 26.4041 78.7114 26.4172C78.7169 26.4304 78.7198 26.4445 78.7198 26.4587L78.7224 27.056C78.7224 27.0844 78.7111 27.1116 78.6911 27.1316C78.671 27.1517 78.6438 27.163 78.6154 27.163H76.5054C76.477 27.163 76.4498 27.1517 76.4298 27.1316C76.4097 27.1116 76.3984 27.0844 76.3984 27.056L76.401 23.5975C76.401 23.5691 76.4123 23.5419 76.4324 23.5219C76.4524 23.5018 76.4796 23.4906 76.508 23.4906L78.5998 23.4854C78.6138 23.4854 78.6277 23.4881 78.6407 23.4935C78.6537 23.4989 78.6655 23.5067 78.6754 23.5167C78.6853 23.5266 78.6932 23.5384 78.6986 23.5514C78.704 23.5643 78.7067 23.5782 78.7067 23.5923L78.7119 24.1922C78.7119 24.2062 78.7092 24.2201 78.7038 24.2331C78.6984 24.2461 78.6906 24.2579 78.6806 24.2678C78.6707 24.2777 78.6589 24.2856 78.6459 24.291C78.633 24.2964 78.6191 24.2991 78.605 24.2991L77.3374 24.2939C77.3231 24.2936 77.309 24.2961 77.2957 24.3013C77.2824 24.3065 77.2703 24.3143 77.2601 24.3243C77.2499 24.3343 77.2418 24.3462 77.2362 24.3593C77.2307 24.3725 77.2279 24.3866 77.2279 24.4008L77.2253 24.7738C77.2249 24.7881 77.2274 24.8023 77.2326 24.8155C77.2378 24.8288 77.2457 24.8409 77.2556 24.8511C77.2656 24.8613 77.2775 24.8694 77.2907 24.875C77.3038 24.8805 77.3179 24.8834 77.3322 24.8834H78.4772C78.4915 24.8834 78.5056 24.8862 78.5187 24.8917C78.5319 24.8973 78.5438 24.9054 78.5538 24.9156C78.5637 24.9258 78.5715 24.9379 78.5768 24.9512C78.582 24.9645 78.5845 24.9786 78.5841 24.9929L78.5633 25.5876C78.5626 25.6155 78.551 25.642 78.531 25.6615C78.5111 25.681 78.4843 25.6919 78.4563 25.6919L77.3426 25.6763C77.3284 25.6759 77.3142 25.6784 77.3009 25.6836C77.2876 25.6889 77.2755 25.6967 77.2653 25.7067C77.2551 25.7166 77.247 25.7285 77.2415 25.7417C77.2359 25.7548 77.2331 25.7689 77.2331 25.7832L77.2226 26.2631C77.2223 26.2776 77.2249 26.292 77.2303 26.3055C77.2356 26.3189 77.2437 26.3311 77.2539 26.3414C77.2642 26.3516 77.2764 26.3597 77.2899 26.3651C77.3033 26.3704 77.3177 26.373 77.3322 26.3727Z" fill="#626261"/>
<path d="M84.5429 25.9241L84.5899 27.043C84.5906 27.0688 84.5812 27.0939 84.5636 27.113C84.5461 27.132 84.5218 27.1434 84.496 27.1447L83.8387 27.1708C83.8255 27.1711 83.8123 27.1688 83.8 27.164C83.7876 27.1592 83.7764 27.1519 83.7669 27.1427C83.7574 27.1335 83.7499 27.1224 83.7448 27.1102C83.7396 27.098 83.737 27.0849 83.737 27.0717L83.7344 23.5897C83.7344 23.5634 83.7448 23.5382 83.7634 23.5196C83.782 23.501 83.8072 23.4906 83.8335 23.4906L85.8731 23.4854C85.8994 23.4854 85.9246 23.4958 85.9432 23.5144C85.9618 23.533 85.9722 23.5582 85.9722 23.5845L85.9748 24.2C85.9748 24.2263 85.9644 24.2515 85.9458 24.2701C85.9272 24.2887 85.902 24.2991 85.8757 24.2991L84.6446 24.2965C84.6316 24.2965 84.6187 24.2991 84.6067 24.3041C84.5947 24.309 84.5838 24.3163 84.5746 24.3255C84.5654 24.3347 84.5581 24.3457 84.5531 24.3577C84.5481 24.3697 84.5455 24.3826 84.5455 24.3956L84.5534 24.9094C84.5534 24.9357 84.5638 24.9609 84.5824 24.9795C84.601 24.9981 84.6262 25.0086 84.6525 25.0086L85.821 25.0033C85.8472 25.0033 85.8725 25.0138 85.891 25.0324C85.9096 25.051 85.9201 25.0762 85.9201 25.1025L85.9279 25.705C85.9279 25.7312 85.9175 25.7565 85.8989 25.775C85.8803 25.7936 85.8551 25.8041 85.8288 25.8041L84.6394 25.8197C84.6262 25.8201 84.6131 25.823 84.6011 25.8285C84.589 25.834 84.5781 25.8418 84.5691 25.8515C84.5601 25.8612 84.5532 25.8727 84.5487 25.8851C84.5442 25.8976 84.5422 25.9108 84.5429 25.9241Z" fill="#626261"/>
<path d="M95.9779 25.4073L95.9935 27.0296C95.9952 27.1166 95.9526 27.1609 95.8657 27.1627L95.2788 27.1653C95.2443 27.1653 95.2111 27.1515 95.1866 27.1271C95.1622 27.1026 95.1484 27.0694 95.1484 27.0349V23.6494C95.1484 23.5659 95.1876 23.5111 95.2658 23.4851C95.544 23.3929 95.7683 23.4651 95.9387 23.7015C96.2795 24.1745 96.6334 24.6788 97.0003 25.2143C97.1376 25.4143 97.2046 25.3925 97.2011 25.1491L97.1802 23.6546C97.1785 23.5398 97.235 23.4824 97.3498 23.4824H97.8897C97.9992 23.4824 98.054 23.5372 98.054 23.6468L98.0488 26.9723C98.0488 27.0644 98.0062 27.1244 97.921 27.1522C97.6393 27.2461 97.4141 27.1748 97.2455 26.9384C96.8664 26.408 96.4943 25.882 96.1291 25.3604C96.0265 25.2143 95.9761 25.23 95.9779 25.4073Z" fill="#626261"/>
<path d="M99.5039 24.4106L99.4857 24.7471C99.4846 24.7638 99.487 24.7806 99.4926 24.7964C99.4983 24.8122 99.5072 24.8266 99.5187 24.8389C99.5302 24.8511 99.5441 24.8608 99.5595 24.8675C99.5749 24.8741 99.5915 24.8775 99.6082 24.8775L100.709 24.8801C100.741 24.8801 100.773 24.893 100.796 24.916C100.819 24.939 100.832 24.9702 100.832 25.0027V25.5765C100.832 25.5928 100.828 25.609 100.822 25.624C100.816 25.6391 100.806 25.6527 100.795 25.6641C100.783 25.6755 100.769 25.6845 100.754 25.6905C100.739 25.6965 100.723 25.6994 100.706 25.6991L99.6422 25.6704C99.6261 25.6701 99.61 25.6729 99.595 25.6787C99.58 25.6846 99.5663 25.6933 99.5547 25.7044C99.5431 25.7156 99.5338 25.7289 99.5273 25.7437C99.5208 25.7584 99.5173 25.7743 99.517 25.7904L99.5013 26.239C99.5006 26.2557 99.5033 26.2725 99.5093 26.2881C99.5153 26.3038 99.5245 26.318 99.5362 26.33C99.5479 26.342 99.562 26.3514 99.5775 26.3578C99.5931 26.3641 99.6097 26.3672 99.6265 26.3668L100.876 26.3616C100.892 26.3616 100.908 26.3648 100.923 26.3712C100.938 26.3775 100.952 26.3867 100.963 26.3984C100.975 26.4101 100.984 26.4239 100.99 26.4391C100.996 26.4542 100.999 26.4705 100.998 26.4868L100.985 27.0423C100.985 27.0744 100.971 27.1049 100.949 27.1273C100.926 27.1498 100.895 27.1623 100.863 27.1623H98.7866C98.7541 27.1623 98.723 27.1494 98.7 27.1264C98.677 27.1034 98.6641 27.0722 98.6641 27.0397V23.6151C98.6641 23.5826 98.677 23.5514 98.7 23.5284C98.723 23.5054 98.7541 23.4925 98.7866 23.4925L100.816 23.4873C100.848 23.4873 100.88 23.5002 100.903 23.5232C100.926 23.5462 100.938 23.5774 100.938 23.6099L100.944 24.1733C100.944 24.2058 100.931 24.237 100.908 24.26C100.885 24.2829 100.854 24.2959 100.821 24.2959H99.6265C99.5953 24.2958 99.5652 24.3076 99.5425 24.329C99.5197 24.3503 99.5059 24.3795 99.5039 24.4106Z" fill="#626261"/>
<path d="M107.541 25.6965C107.611 25.9573 107.678 25.9564 107.742 25.6939L108.272 23.5499C108.275 23.5337 108.284 23.5192 108.298 23.5088C108.311 23.4983 108.327 23.4926 108.345 23.4925L109.096 23.4821C109.106 23.4822 109.116 23.4846 109.125 23.4891C109.134 23.4936 109.142 23.5001 109.148 23.5082C109.155 23.5162 109.159 23.5255 109.161 23.5354C109.163 23.5454 109.163 23.5557 109.161 23.5656L108.198 27.0215C108.172 27.1188 108.109 27.1667 108.008 27.1649L107.338 27.1623C107.244 27.1623 107.184 27.1162 107.158 27.0241L106.696 25.3313C106.599 24.9749 106.521 24.9784 106.461 25.3418C106.38 25.8425 106.241 26.3998 106.047 27.0136C106.015 27.111 105.949 27.1597 105.848 27.1597L105.236 27.1649C105.109 27.1667 105.029 27.1058 104.996 26.9823C104.688 25.8695 104.39 24.7793 104.104 23.7116C104.091 23.6699 104.065 23.6395 104.025 23.6203C104.017 23.6169 104.007 23.616 103.997 23.6177C103.969 23.6247 103.955 23.6429 103.955 23.6725C103.955 23.822 103.944 23.9716 103.924 24.1211C103.917 24.1726 103.891 24.2196 103.851 24.2533C103.811 24.2869 103.76 24.3049 103.707 24.3037L103.146 24.288C103.124 24.2873 103.102 24.291 103.082 24.2988C103.061 24.3066 103.043 24.3184 103.027 24.3335C103.011 24.3486 102.998 24.3667 102.99 24.3866C102.981 24.4066 102.977 24.4281 102.977 24.4497L102.982 27.0319C102.982 27.1223 102.937 27.1675 102.846 27.1675L102.26 27.1623C102.171 27.1623 102.127 27.1188 102.129 27.0319L102.132 24.4237C102.132 24.3367 102.087 24.2933 101.999 24.2933L101.341 24.2985C101.248 24.2985 101.2 24.2515 101.198 24.1576L101.188 23.6438C101.186 23.5395 101.237 23.4873 101.341 23.4873L104.797 23.503C104.889 23.503 104.946 23.5473 104.967 23.636L105.449 25.6913C105.512 25.9556 105.579 25.9564 105.65 25.6939L106.214 23.6464C106.225 23.6066 106.247 23.5706 106.278 23.5429C106.309 23.5152 106.347 23.4968 106.388 23.4899C106.557 23.4621 106.718 23.4699 106.871 23.5134C106.942 23.5325 106.987 23.5777 107.004 23.649L107.541 25.6965Z" fill="#626261"/>
<path d="M113.053 25.3233C113.053 25.8317 112.851 26.3193 112.491 26.6789C112.132 27.0384 111.644 27.2404 111.136 27.2404C110.627 27.2404 110.14 27.0384 109.78 26.6789C109.421 26.3193 109.219 25.8317 109.219 25.3233C109.219 24.8149 109.421 24.3273 109.78 23.9677C110.14 23.6082 110.627 23.4063 111.136 23.4062C111.644 23.4062 112.132 23.6082 112.491 23.9677C112.851 24.3273 113.053 24.8149 113.053 25.3233ZM112.221 25.3207C112.221 25.0322 112.106 24.7556 111.902 24.5516C111.698 24.3477 111.422 24.2331 111.133 24.2331C110.845 24.2331 110.568 24.3477 110.364 24.5516C110.16 24.7556 110.046 25.0322 110.046 25.3207C110.046 25.6092 110.16 25.8858 110.364 26.0898C110.568 26.2937 110.845 26.4083 111.133 26.4083C111.422 26.4083 111.698 26.2937 111.902 26.0898C112.106 25.8858 112.221 25.6092 112.221 25.3207Z" fill="#626261"/>
<path d="M117.579 24.8101C117.578 25.0188 117.636 25.037 117.754 24.8649L118.604 23.6182C118.665 23.5295 118.75 23.4843 118.857 23.4825L119.52 23.4747C119.631 23.4747 119.655 23.5199 119.59 23.6103L118.505 25.1622C118.45 25.244 118.45 25.3248 118.505 25.4048L119.689 27.0949C119.692 27.0985 119.694 27.1026 119.695 27.1071C119.695 27.1115 119.695 27.116 119.693 27.1202C119.692 27.1244 119.689 27.1281 119.686 27.131C119.682 27.1339 119.678 27.1358 119.674 27.1367C119.279 27.1975 118.972 27.1932 118.753 27.1236C118.732 27.1167 118.715 27.1036 118.701 27.0845L117.746 25.676C117.632 25.5074 117.575 25.5248 117.577 25.7282L117.59 27.0297C117.59 27.1219 117.545 27.168 117.454 27.168L116.87 27.1627C116.787 27.1627 116.745 27.121 116.745 27.0375L116.742 23.5973C116.742 23.5312 116.776 23.4973 116.844 23.4956L117.433 23.4747C117.454 23.474 117.474 23.4774 117.493 23.4847C117.512 23.492 117.529 23.503 117.544 23.5171C117.558 23.5312 117.57 23.5482 117.578 23.5669C117.586 23.5856 117.59 23.6057 117.59 23.626L117.579 24.8101Z" fill="#626261"/>
<path d="M128.063 25.3236C128.063 25.8314 127.862 26.3183 127.503 26.6773C127.144 27.0364 126.657 27.2381 126.149 27.2381C125.641 27.2381 125.154 27.0364 124.795 26.6773C124.436 26.3183 124.234 25.8314 124.234 25.3236C124.234 24.8159 124.436 24.3289 124.795 23.9699C125.154 23.6109 125.641 23.4092 126.149 23.4092C126.657 23.4092 127.144 23.6109 127.503 23.9699C127.862 24.3289 128.063 24.8159 128.063 25.3236ZM127.236 25.321C127.236 25.0319 127.122 24.7546 126.917 24.5501C126.713 24.3456 126.435 24.2308 126.146 24.2308C126.003 24.2308 125.861 24.259 125.729 24.3138C125.597 24.3686 125.477 24.4489 125.375 24.5501C125.274 24.6513 125.194 24.7715 125.139 24.9038C125.084 25.0361 125.056 25.1778 125.056 25.321C125.056 25.4642 125.084 25.606 125.139 25.7382C125.194 25.8705 125.274 25.9907 125.375 26.0919C125.477 26.1932 125.597 26.2735 125.729 26.3283C125.861 26.3831 126.003 26.4113 126.146 26.4113C126.435 26.4113 126.713 26.2964 126.917 26.0919C127.122 25.8875 127.236 25.6102 127.236 25.321Z" fill="#626261"/>
<path d="M129.509 26.3727L130.573 26.3623C130.608 26.3623 130.642 26.3759 130.667 26.4003C130.691 26.4247 130.706 26.4579 130.707 26.4927L130.717 27.0248C130.717 27.0425 130.714 27.06 130.708 27.0765C130.701 27.0929 130.691 27.1079 130.679 27.1205C130.667 27.1331 130.652 27.1432 130.635 27.15C130.619 27.1569 130.602 27.1604 130.584 27.1604L128.672 27.1656C128.637 27.1656 128.603 27.1516 128.578 27.1266C128.553 27.1017 128.539 27.0679 128.539 27.0326L128.544 23.6106C128.544 23.5929 128.548 23.5754 128.555 23.5591C128.561 23.5428 128.572 23.528 128.584 23.5156C128.597 23.5032 128.612 23.4935 128.628 23.4869C128.645 23.4804 128.662 23.4772 128.68 23.4776L129.254 23.4854C129.289 23.4861 129.322 23.5004 129.346 23.5253C129.37 23.5501 129.384 23.5836 129.384 23.6184L129.374 26.2371C129.373 26.255 129.377 26.2728 129.383 26.2894C129.39 26.306 129.4 26.3211 129.413 26.3338C129.425 26.3464 129.44 26.3564 129.457 26.3631C129.474 26.3698 129.491 26.3731 129.509 26.3727Z" fill="#626261"/>
<path d="M132.393 26.4164L132.523 26.4086C132.649 26.4 132.766 26.344 132.852 26.252C132.938 26.16 132.985 26.0388 132.985 25.913L132.977 23.6178C132.977 23.5187 133.027 23.47 133.126 23.4717L133.671 23.4848C133.779 23.4865 133.831 23.5413 133.827 23.6491C133.801 24.2681 133.803 24.9628 133.833 25.7331C133.911 27.7466 130.961 27.7649 130.977 25.8061C130.982 25.0532 130.983 24.3316 130.979 23.6413C130.979 23.6023 130.995 23.5649 131.022 23.537C131.049 23.5092 131.086 23.4933 131.125 23.4926L131.678 23.4848C131.697 23.4844 131.715 23.4877 131.732 23.4945C131.749 23.5013 131.765 23.5115 131.778 23.5243C131.791 23.5372 131.801 23.5525 131.808 23.5695C131.815 23.5864 131.819 23.6046 131.819 23.623L131.809 25.8661C131.807 26.2591 132.002 26.4425 132.393 26.4164Z" fill="#626261"/>
<path d="M135.922 24.424L135.943 27.0192C135.943 27.0367 135.94 27.054 135.934 27.0703C135.927 27.0866 135.918 27.1014 135.906 27.114C135.894 27.1266 135.879 27.1367 135.863 27.1437C135.847 27.1507 135.83 27.1545 135.813 27.1548L135.249 27.1705C135.231 27.1712 135.213 27.1682 135.197 27.1619C135.18 27.1555 135.165 27.1458 135.152 27.1334C135.139 27.121 135.129 27.1061 135.122 27.0896C135.114 27.0731 135.111 27.0554 135.111 27.0374L135.119 24.4162C135.119 24.3983 135.115 24.3805 135.108 24.364C135.101 24.3475 135.091 24.3326 135.078 24.3202C135.065 24.3078 135.05 24.2981 135.033 24.2917C135.016 24.2854 134.998 24.2824 134.98 24.2831L134.297 24.3066C134.279 24.3073 134.262 24.3045 134.245 24.2983C134.229 24.2921 134.213 24.2826 134.201 24.2705C134.188 24.2583 134.177 24.2437 134.17 24.2275C134.163 24.2114 134.159 24.1939 134.159 24.1762L134.148 23.6311C134.148 23.6134 134.151 23.5958 134.158 23.5794C134.164 23.5629 134.174 23.548 134.186 23.5353C134.199 23.5227 134.214 23.5127 134.23 23.5058C134.246 23.499 134.264 23.4955 134.281 23.4955L136.757 23.4824C136.774 23.4824 136.792 23.4859 136.808 23.4928C136.825 23.4996 136.839 23.5097 136.852 23.5223C136.864 23.5349 136.874 23.5499 136.88 23.5663C136.887 23.5828 136.89 23.6004 136.89 23.6181L136.877 24.1684C136.876 24.1859 136.873 24.2031 136.866 24.2191C136.859 24.2351 136.848 24.2496 136.836 24.2617C136.823 24.2738 136.808 24.2833 136.792 24.2897C136.776 24.296 136.759 24.2991 136.741 24.2988L136.058 24.291C136.04 24.2906 136.022 24.2938 136.006 24.3003C135.99 24.3069 135.975 24.3166 135.962 24.329C135.949 24.3414 135.939 24.3562 135.932 24.3725C135.926 24.3888 135.922 24.4063 135.922 24.424Z" fill="#626261"/>
<path d="M138.004 23.4886L137.378 23.4875C137.32 23.4874 137.273 23.534 137.273 23.5916L137.267 27.0554C137.267 27.113 137.314 27.1598 137.371 27.1599L137.997 27.161C138.055 27.1611 138.102 27.1144 138.102 27.0568L138.108 23.5931C138.108 23.5355 138.061 23.4887 138.004 23.4886Z" fill="#626261"/>
<path d="M142.399 25.3236C142.399 25.8314 142.198 26.3183 141.838 26.6773C141.479 27.0364 140.993 27.2381 140.485 27.2381C139.977 27.2381 139.49 27.0364 139.131 26.6773C138.772 26.3183 138.57 25.8314 138.57 25.3236C138.57 24.8159 138.772 24.3289 139.131 23.9699C139.49 23.6109 139.977 23.4092 140.485 23.4092C140.993 23.4092 141.479 23.6109 141.838 23.9699C142.198 24.3289 142.399 24.8159 142.399 25.3236ZM141.575 25.321C141.575 25.0312 141.46 24.7532 141.255 24.5483C141.05 24.3433 140.772 24.2282 140.482 24.2282C140.192 24.2282 139.914 24.3433 139.709 24.5483C139.504 24.7532 139.389 25.0312 139.389 25.321C139.389 25.6109 139.504 25.8888 139.709 26.0938C139.914 26.2987 140.192 26.4139 140.482 26.4139C140.772 26.4139 141.05 26.2987 141.255 26.0938C141.46 25.8888 141.575 25.6109 141.575 25.321Z" fill="#626261"/>
<path d="M143.712 25.4077L143.725 27.03C143.727 27.117 143.684 27.1604 143.595 27.1604L143.008 27.1683C142.919 27.1683 142.875 27.1239 142.875 27.0352V23.655C142.875 23.5715 142.913 23.5167 142.99 23.4907C143.266 23.3915 143.491 23.4585 143.663 23.6915C144.037 24.201 144.402 24.7226 144.758 25.2564C144.892 25.4581 144.957 25.4381 144.954 25.1964L144.933 23.6706C144.931 23.5385 144.996 23.4741 145.129 23.4776L145.655 23.4933C145.687 23.4939 145.718 23.5074 145.74 23.5308C145.763 23.5542 145.775 23.5857 145.775 23.6185L145.765 26.9805C145.765 27.0709 145.722 27.1291 145.637 27.1552C145.366 27.2439 145.148 27.1735 144.982 26.944C144.6 26.4101 144.228 25.8815 143.866 25.3582C143.764 25.2069 143.712 25.2234 143.712 25.4077Z" fill="#626261"/>
<path d="M148.004 25.913C147.804 25.7617 147.584 25.6661 147.344 25.6261C146.04 25.4174 145.92 23.7091 147.211 23.4561C147.864 23.3274 148.398 23.5247 148.816 24.0481C148.894 24.149 148.879 24.2342 148.771 24.3037L148.359 24.5672C148.267 24.6245 148.182 24.6159 148.104 24.5411C147.957 24.4002 147.864 24.2464 147.637 24.2229C147.461 24.2055 147.318 24.2568 147.206 24.3768C147.181 24.4036 147.162 24.4362 147.152 24.4716C147.142 24.5071 147.14 24.5445 147.148 24.5807C147.155 24.6169 147.17 24.6509 147.193 24.6799C147.216 24.7088 147.246 24.7319 147.279 24.7471C147.561 24.8758 147.852 24.9827 148.153 25.0679C149.275 25.3888 149.282 26.8755 148.166 27.1624C147.373 27.3641 146.744 27.1763 146.278 26.599C146.147 26.439 146.172 26.3077 146.351 26.2051L146.664 26.0278C146.801 25.9513 146.918 25.9756 147.013 26.1008C147.251 26.4173 147.564 26.4946 147.952 26.3329C148.215 26.2234 148.232 26.0834 148.004 25.913Z" fill="#626261"/>
<path d="M41.0391 23.6158C41.0391 23.5819 41.0525 23.5494 41.0765 23.5254C41.1005 23.5014 41.133 23.488 41.1669 23.488L42.5101 23.4854C42.7451 23.485 42.9778 23.5302 43.195 23.6184C43.4123 23.7065 43.6097 23.8359 43.7761 23.9991C43.9425 24.1624 44.0746 24.3563 44.1648 24.5698C44.255 24.7832 44.3016 25.0121 44.302 25.2433V25.3998C44.3026 25.8667 44.1148 26.3148 43.7797 26.6454C43.4447 26.9761 42.9899 27.1623 42.5153 27.163L41.1721 27.1656C41.1382 27.1656 41.1057 27.1521 41.0817 27.1281C41.0577 27.1042 41.0443 27.0717 41.0443 27.0378L41.0391 23.6158ZM41.8867 24.4426L41.8763 26.2057C41.876 26.2265 41.8798 26.2471 41.8875 26.2664C41.8952 26.2857 41.9066 26.3033 41.9212 26.3181C41.9358 26.3329 41.9531 26.3447 41.9723 26.3527C41.9915 26.3607 42.012 26.3648 42.0328 26.3648L42.5258 26.3675C42.7824 26.3688 43.0291 26.2671 43.2115 26.0847C43.394 25.9022 43.4972 25.654 43.4986 25.3946V25.2746C43.4993 25.1462 43.475 25.0188 43.427 24.8999C43.379 24.781 43.3083 24.6727 43.2189 24.5814C43.1296 24.4901 43.0233 24.4175 42.9061 24.3677C42.789 24.3179 42.6633 24.292 42.5362 24.2913L42.0432 24.2887C42.0022 24.2887 41.9628 24.3048 41.9335 24.3336C41.9042 24.3624 41.8874 24.4015 41.8867 24.4426Z" fill="#626261"/>
<path d="M70.4831 26.3264C70.4727 26.5368 70.4805 26.7585 70.5066 26.9915C70.5187 27.0993 70.4709 27.154 70.3631 27.1558L69.7789 27.1688C69.6867 27.1706 69.6406 27.1245 69.6406 27.0306V23.6451C69.6406 23.5477 69.6902 23.4973 69.7893 23.4938C70.3501 23.4756 71.4481 23.3947 71.8289 23.6868C72.601 24.2685 72.5514 25.1631 71.8133 25.7395C71.7403 25.7969 71.7272 25.8664 71.7742 25.9482L72.4393 27.0567C72.4457 27.0673 72.4492 27.0795 72.4495 27.092C72.4497 27.1045 72.4466 27.1168 72.4405 27.1276C72.4344 27.1385 72.4255 27.1476 72.4147 27.1539C72.404 27.1602 72.3917 27.1636 72.3793 27.1636H71.735C71.6133 27.1636 71.5255 27.1088 71.4716 26.9993C71.3255 26.7089 71.1647 26.4359 70.9891 26.1803C70.6778 25.7299 70.5092 25.7786 70.4831 26.3264ZM70.4674 24.3598L70.4779 25.1605C70.4779 25.1805 70.4858 25.1998 70.5 25.214C70.5142 25.2282 70.5334 25.2361 70.5535 25.2361L71.0621 25.2309C71.1893 25.2294 71.3108 25.1805 71.3998 25.0949C71.4888 25.0093 71.5381 24.8941 71.5368 24.7745V24.7223C71.5362 24.663 71.5231 24.6044 71.4984 24.5499C71.4737 24.4954 71.4378 24.446 71.3927 24.4046C71.3477 24.3632 71.2943 24.3305 71.2358 24.3085C71.1773 24.2865 71.1147 24.2756 71.0517 24.2763L70.5431 24.2815C70.5329 24.2815 70.5229 24.2835 70.5135 24.2875C70.5042 24.2915 70.4957 24.2973 70.4887 24.3046C70.4816 24.3119 70.4761 24.3205 70.4724 24.33C70.4688 24.3395 70.4671 24.3496 70.4674 24.3598Z" fill="#626261"/>
<path d="M80.2647 25.9235C80.1134 25.9079 80.0352 25.9479 80.03 26.0435C80.0143 26.3495 80.0135 26.6773 80.0274 27.0268C80.0309 27.119 79.9856 27.1651 79.8918 27.1651L79.3023 27.1624C79.2171 27.1624 79.1745 27.119 79.1745 27.032L79.1719 23.6465C79.1719 23.5283 79.231 23.4727 79.3492 23.4796C80.0639 23.5292 80.9637 23.3023 81.5219 23.8369C82.067 24.3612 82.0566 25.3054 81.3784 25.7279C81.3574 25.7409 81.3392 25.7579 81.3248 25.778C81.3104 25.7981 81.3001 25.8209 81.2945 25.8451C81.289 25.8694 81.2882 25.8945 81.2923 25.9192C81.2964 25.9438 81.3053 25.9674 81.3185 25.9887L81.9705 27.0399C82.0192 27.1164 81.9975 27.1555 81.9053 27.1572L81.2298 27.1651C81.1567 27.1668 81.1011 27.1355 81.0628 27.0712L80.4656 26.0539C80.4445 26.0183 80.4155 25.988 80.3806 25.9654C80.3458 25.9428 80.3061 25.9285 80.2647 25.9235ZM80.0117 24.3795L80.0222 25.1411C80.0225 25.1551 80.0256 25.1689 80.0313 25.1818C80.037 25.1946 80.0451 25.2062 80.0553 25.2159C80.0655 25.2256 80.0775 25.2332 80.0906 25.2383C80.1037 25.2433 80.1177 25.2457 80.1317 25.2454L80.5829 25.2402C80.7129 25.238 80.8368 25.1882 80.9272 25.1016C81.0177 25.015 81.0674 24.8988 81.0655 24.7785V24.7107C81.0645 24.6511 81.0508 24.5922 81.0253 24.5375C80.9997 24.4828 80.9627 24.4333 80.9165 24.3919C80.8702 24.3505 80.8155 24.3179 80.7556 24.2961C80.6957 24.2743 80.6317 24.2636 80.5673 24.2647L80.1161 24.2699C80.102 24.2702 80.0882 24.2734 80.0753 24.279C80.0625 24.2847 80.0509 24.2929 80.0412 24.3031C80.0315 24.3132 80.0239 24.3252 80.0189 24.3383C80.0138 24.3514 80.0114 24.3654 80.0117 24.3795Z" fill="#626261"/>
<path d="M91.4362 26.0732L91.4336 27.0331C91.4319 27.1217 91.3867 27.1661 91.298 27.1661L90.7163 27.1609C90.6346 27.1609 90.5938 27.1191 90.5938 27.0357V23.6424C90.5938 23.5485 90.6407 23.4998 90.7346 23.4963C91.4466 23.4754 92.5708 23.3189 93.0351 23.9449C93.5132 24.5952 93.4298 25.1977 92.7847 25.7524C92.7064 25.8202 92.6934 25.8985 92.7455 25.9872L93.335 26.9809C93.408 27.1026 93.3733 27.1635 93.2307 27.1635L92.6856 27.1661C92.5778 27.1661 92.4978 27.12 92.4456 27.0279L91.8353 25.9689C91.8118 25.9283 91.7757 25.8966 91.7325 25.8785C91.6893 25.8605 91.6413 25.8571 91.596 25.869C91.5506 25.8808 91.5105 25.9072 91.4816 25.9441C91.4527 25.981 91.4368 26.0264 91.4362 26.0732ZM91.4258 24.4118L91.444 25.116C91.4444 25.1338 91.4482 25.1514 91.4554 25.1677C91.4625 25.184 91.4728 25.1988 91.4856 25.2112C91.4984 25.2235 91.5136 25.2332 91.5302 25.2397C91.5468 25.2462 91.5645 25.2494 91.5823 25.249L91.9526 25.2386C92.0978 25.235 92.2359 25.1863 92.3366 25.1031C92.4374 25.02 92.4925 24.9092 92.4899 24.7952L92.4847 24.6804C92.4835 24.6239 92.468 24.5682 92.4393 24.5166C92.4106 24.465 92.3691 24.4184 92.3172 24.3797C92.2654 24.3409 92.2042 24.3107 92.1372 24.2907C92.0701 24.2707 91.9986 24.2613 91.9266 24.2631L91.5562 24.2736C91.5207 24.2749 91.4871 24.2902 91.4627 24.316C91.4383 24.3419 91.4251 24.3763 91.4258 24.4118Z" fill="#626261"/>
<path d="M114.342 26.3306C114.316 26.5427 114.33 26.7575 114.384 26.9748C114.414 27.0966 114.366 27.1583 114.241 27.16L113.617 27.1626C113.539 27.1626 113.5 27.1235 113.5 27.0453L113.505 23.6493C113.505 23.5433 113.558 23.4902 113.664 23.4902L115.146 23.4955C115.265 23.4955 115.382 23.5193 115.492 23.5654C115.601 23.6116 115.7 23.6791 115.782 23.7641C116.452 24.4527 116.419 25.1186 115.683 25.762C115.612 25.8246 115.601 25.8959 115.652 25.9759L116.273 27.0009C116.339 27.107 116.309 27.1609 116.184 27.1626L115.615 27.1678C115.506 27.1678 115.422 27.12 115.365 27.0244L114.895 26.2158C114.598 25.7064 114.414 25.7446 114.342 26.3306ZM114.329 24.3875L114.34 25.1386C114.34 25.1529 114.343 25.167 114.348 25.1802C114.354 25.1933 114.362 25.2052 114.372 25.2152C114.382 25.2252 114.394 25.233 114.408 25.2382C114.421 25.2434 114.435 25.2459 114.449 25.2456L114.841 25.2378C114.996 25.2352 115.144 25.1849 115.252 25.0979C115.361 25.0109 115.421 24.8942 115.42 24.7735V24.7213C115.419 24.6612 115.403 24.6019 115.373 24.5468C115.342 24.4917 115.298 24.4418 115.243 24.4002C115.188 24.3585 115.122 24.3258 115.051 24.3039C114.979 24.282 114.902 24.2714 114.825 24.2727L114.434 24.2805C114.406 24.2812 114.379 24.2928 114.36 24.3128C114.34 24.3327 114.329 24.3596 114.329 24.3875Z" fill="#626261"/>
<path d="M60.7626 31.405L60.476 31.6789C60.4073 31.7446 60.4048 31.8536 60.4705 31.9223L60.7408 32.2052C60.8065 32.2739 60.9154 32.2764 60.9842 32.2107L61.2708 31.9368C61.3395 31.8711 61.342 31.7621 61.2763 31.6934L61.006 31.4105C60.9403 31.3418 60.8314 31.3393 60.7626 31.405Z" fill="#626261"/>
<path d="M115.036 33.5558C115.555 33.7279 116.059 34.0218 116.549 34.4374C117.311 35.0868 117.118 36.0258 116.254 36.4431C115.308 36.8969 113.706 36.7013 112.642 36.7013C112.526 36.7013 112.459 36.7587 112.441 36.8735C112.24 38.1202 111.307 38.9027 110.031 38.767C109.819 38.7444 109.647 38.654 109.515 38.4958C109.504 38.4819 109.496 38.4654 109.493 38.4478C109.491 38.4303 109.493 38.4123 109.499 38.3956C109.505 38.379 109.516 38.3643 109.53 38.3531C109.543 38.3418 109.56 38.3344 109.577 38.3315C110.48 38.2089 111.427 37.8568 111.813 36.9752C111.824 36.95 111.83 36.9225 111.829 36.8947C111.828 36.867 111.82 36.8399 111.807 36.8154C111.793 36.7909 111.774 36.7697 111.751 36.7536C111.729 36.7374 111.702 36.7267 111.674 36.7222C111.129 36.6335 110.519 36.4822 110.232 35.9684C109.872 35.3268 110.436 34.4348 110.897 34.0148C110.951 33.9652 111.015 33.9278 111.085 33.9052C111.155 33.8827 111.229 33.8755 111.302 33.8842C111.374 33.8928 111.445 33.9172 111.507 33.9555C111.57 33.9938 111.623 34.0452 111.664 34.1061C111.984 34.5843 112.251 35.0946 112.465 35.6372C112.487 35.6948 112.526 35.7443 112.577 35.7793C112.629 35.8142 112.689 35.8328 112.752 35.8328L116.098 35.8223C116.16 35.8223 116.222 35.8077 116.278 35.7796C116.333 35.7516 116.382 35.7108 116.419 35.6606C116.544 35.4902 116.525 35.3381 116.361 35.2042C115.831 34.7677 115.286 34.44 114.726 34.2209C114.611 34.1765 114.519 34.0886 114.468 33.9762C114.418 33.8639 114.414 33.7362 114.457 33.621C114.828 32.6168 116.153 31.8996 117.079 31.4953C117.272 31.4101 117.347 31.4709 117.306 31.6779L117.274 31.8344C117.234 32.0361 117.125 32.1882 116.946 32.2908L115.018 33.3915C115.003 33.3997 114.99 33.4123 114.982 33.4277C114.974 33.4431 114.971 33.4606 114.973 33.4781C114.975 33.4956 114.982 33.5122 114.993 33.5261C115.005 33.5399 115.02 33.5502 115.036 33.5558ZM110.618 35.0242C110.51 35.2659 110.557 35.4728 110.759 35.645C111.004 35.8536 111.315 35.9345 111.693 35.8876C111.816 35.8736 111.862 35.8058 111.831 35.6841C111.728 35.2981 111.531 34.9877 111.239 34.753C110.995 34.5565 110.809 34.6008 110.681 34.886L110.618 35.0242Z" fill="#626261"/>
<path d="M48.9578 34.0069C48.946 34.0185 48.9381 34.0334 48.9351 34.0497C48.932 34.0659 48.9341 34.0827 48.9409 34.0978C48.9477 34.1129 48.959 34.1255 48.9732 34.1339C48.9874 34.1424 49.0039 34.1463 49.0204 34.1451C50.1228 34.1051 51.2443 34.1164 52.385 34.179C53.1127 34.2207 53.2744 34.7528 53.2379 35.3631C53.2337 35.4332 53.2435 35.5033 53.2669 35.5694C53.2903 35.6355 53.3266 35.6962 53.3739 35.7478C53.4211 35.7994 53.4782 35.8409 53.5418 35.8698C53.6054 35.8987 53.6741 35.9145 53.7439 35.9161C54.3838 35.9317 55.0619 35.9248 55.7783 35.8952C56.1774 35.877 56.5034 35.5692 56.3887 35.1571C56.2687 34.7311 56.433 34.4146 56.8816 34.2077C57.0068 34.1486 57.0703 34.1886 57.072 34.3277L57.0746 35.5588C57.0746 35.637 57.1068 35.6979 57.1711 35.7413C57.5363 35.9865 57.9562 35.9317 58.3735 35.8926C58.8456 35.8457 58.9213 35.264 59.0021 34.891C59.0052 34.8761 59.0115 34.8621 59.0207 34.8499C59.0298 34.8376 59.0415 34.8276 59.0549 34.8204C59.0683 34.8132 59.0832 34.809 59.0984 34.8081C59.1136 34.8073 59.1288 34.8098 59.143 34.8154C59.1708 34.8276 59.1925 34.8476 59.2082 34.8754C59.2186 34.8928 59.2238 34.911 59.2238 34.9302C59.2499 35.251 59.1716 35.7231 59.529 35.8848C59.9124 36.0621 60.4288 35.6944 60.4392 35.2875C60.4445 35.0841 60.4427 34.8719 60.434 34.6511C60.4329 34.6336 60.4355 34.616 60.4418 34.5995C60.448 34.5831 60.4578 34.5681 60.4703 34.5556C60.4828 34.543 60.4979 34.5332 60.5146 34.5267C60.5313 34.5203 60.5491 34.5173 60.567 34.5181L60.6583 34.5207C60.8009 34.5259 60.8731 34.6007 60.8748 34.745V35.65C60.8766 35.8222 60.9609 35.8909 61.1278 35.8561L61.5347 35.7726C61.7277 35.7326 61.8199 35.6135 61.8112 35.4153L61.7747 34.6485C61.7677 34.5024 61.8286 34.3937 61.9572 34.3224L62.0407 34.2729C62.0566 34.264 62.0746 34.2593 62.0929 34.2593C62.1111 34.2592 62.1291 34.2639 62.145 34.2728C62.161 34.2817 62.1744 34.2945 62.184 34.31C62.1936 34.3256 62.199 34.3433 62.1998 34.3616L62.252 35.7935C62.2533 35.8255 62.2672 35.8558 62.2906 35.8777C62.314 35.8997 62.3451 35.9116 62.3772 35.9109L64.3047 35.89C64.7341 35.8848 64.9367 35.6683 64.9124 35.2405C64.8602 34.2894 64.7698 33.3713 64.6411 32.4863C64.5785 32.0463 64.7793 31.7325 65.2436 31.5447C65.3149 31.5151 65.3784 31.5282 65.434 31.5838C65.8113 31.9559 65.8626 32.3202 65.5879 32.6767C65.527 32.7545 65.4932 32.8498 65.4914 32.9479C65.4775 33.7582 65.4775 34.6459 65.4914 35.6109C65.5001 36.2247 65.2349 36.5707 64.6959 36.649C63.783 36.782 62.818 36.7377 61.9364 36.4612C61.8741 36.4418 61.808 36.4373 61.7437 36.4482C61.6793 36.459 61.6185 36.485 61.566 36.5238C61.2495 36.7585 60.9252 36.762 60.5931 36.5342C60.5423 36.4991 60.4827 36.4793 60.4212 36.477C60.3597 36.4747 60.299 36.49 60.2462 36.5212C59.7976 36.7803 59.3803 36.7446 58.9943 36.4143C58.9352 36.3638 58.876 36.3656 58.8169 36.4195C58.1179 37.0741 57.3772 36.5368 56.7538 36.0517C56.6547 35.9735 56.5738 35.9891 56.5112 36.0987C56.0365 36.9307 54.8002 36.6986 53.9787 36.7116C53.5613 36.7168 53.2614 36.4638 53.1414 36.0778C53.1031 35.9596 53.0475 35.95 52.9745 36.0491C52.4163 36.7924 51.7877 36.6803 50.9348 36.6959C49.8272 36.7151 48.6822 36.7099 47.4998 36.6803C47.2289 36.6732 46.9709 36.5633 46.7781 36.373C46.5854 36.1826 46.4722 35.926 46.4617 35.6553L46.3365 32.4784C46.3278 32.2524 46.4165 32.075 46.6026 31.9463L46.7591 31.8394C46.9416 31.716 47.0329 31.7638 47.0329 31.9829L47.0277 35.3344C47.0277 35.4827 47.0864 35.625 47.191 35.7301C47.2956 35.8351 47.4376 35.8945 47.5859 35.8952L51.6443 35.9109C51.8634 35.9126 52.0729 35.8683 52.2729 35.7778C52.6189 35.6231 52.7536 35.4666 52.6771 35.3084C52.5085 34.9658 52.2468 34.7945 51.8921 34.7945C50.9548 34.7945 49.9985 34.7902 49.023 34.7815C48.9051 34.7802 48.7913 34.7375 48.7013 34.6608C48.6113 34.5841 48.5507 34.4783 48.53 34.3616C48.3449 33.3157 50.0559 32.275 50.8801 32.0063C51.0609 31.9472 51.1226 32.0089 51.0653 32.1915L51.0079 32.3689C50.947 32.5567 50.827 32.6932 50.6479 32.7784C50.0098 33.0827 49.4464 33.4922 48.9578 34.0069Z" fill="#626261"/>
<path d="M69.297 35.3113C69.2839 35.6451 69.1822 36.2737 69.0309 36.5737C68.8571 36.9214 68.7597 36.9014 68.7388 36.5137L68.5249 32.484C68.5093 32.197 68.6154 31.9649 68.8432 31.7876L69.044 31.6285C69.2405 31.4754 69.3405 31.5233 69.3439 31.7719C69.3526 33.0586 69.337 34.2384 69.297 35.3113Z" fill="#626261"/>
<path d="M73.672 36.4332C73.5181 37.8703 75.949 37.753 75.9255 36.6966C75.896 35.2377 75.8273 33.8867 75.7195 32.6434C75.6969 32.3826 75.7769 32.16 75.9594 31.9757L76.2542 31.6758C76.4385 31.4897 76.5315 31.5271 76.5333 31.7879C76.5472 33.3024 76.5637 34.8448 76.5828 36.4149C76.5906 36.9548 76.4211 37.5182 75.9986 37.8755C74.4362 39.1875 72.5739 37.4139 73.5833 35.6716C73.7363 35.4055 73.7937 35.4247 73.7555 35.729C73.7242 35.9689 73.6964 36.2037 73.672 36.4332Z" fill="#626261"/>
<path d="M83.9865 35.7435C83.8561 35.3732 83.7509 35.3801 83.6709 35.7644C83.5457 36.3608 83.1962 36.6695 82.6224 36.6903C82.0138 36.7129 81.4105 36.7095 80.8123 36.6799C80.6975 36.6747 80.6262 36.7277 80.5984 36.839C80.5341 37.0998 80.4393 37.3493 80.3141 37.5876C79.8064 38.5648 79.0691 38.9456 78.1023 38.73C77.4364 38.5822 77.4346 38.4239 78.0971 38.2553C78.8744 38.0597 79.636 37.7519 79.9438 36.9512C79.9872 36.8364 79.9481 36.7677 79.8264 36.7451C79.4247 36.6721 78.997 36.6851 78.6579 36.4243C77.9354 35.8609 78.4232 34.1916 79.1952 33.91C79.3169 33.8657 79.4507 33.8678 79.571 33.9159C79.6913 33.964 79.7896 34.0547 79.8473 34.1708L80.5671 35.6236C80.6035 35.6969 80.6591 35.7589 80.728 35.803C80.797 35.8471 80.8766 35.8716 80.9584 35.874C81.5409 35.8913 82.1668 35.874 82.8363 35.8218C83.2919 35.787 83.5275 35.5636 83.5431 35.1515C83.5692 34.4212 83.517 33.5761 83.3866 32.6163C83.3501 32.345 83.4275 32.1103 83.6188 31.912L83.8535 31.6643C84.05 31.4591 84.15 31.4982 84.1534 31.7816L84.1874 35.1384C84.1889 35.29 84.2428 35.4363 84.3398 35.5524C84.4369 35.6684 84.571 35.7471 84.7194 35.7748C86.1331 36.0409 88.1936 36.1035 89.3178 35.0471C89.328 35.0375 89.3357 35.0254 89.3402 35.012C89.3447 34.9987 89.3458 34.9844 89.3435 34.9705C89.3412 34.9566 89.3355 34.9434 89.3269 34.9322C89.3183 34.9211 89.3071 34.9121 89.2943 34.9063C88.324 34.4699 87.4407 34.3942 86.6443 34.6794C86.4809 34.7368 86.4252 34.6829 86.4774 34.5177C86.9182 33.0988 88.9422 33.9021 89.8837 34.3455C89.9672 34.3855 89.9924 34.449 89.9594 34.5359L89.6412 35.3784C89.6193 35.4363 89.6117 35.4987 89.6192 35.5602C89.6266 35.6217 89.6489 35.6804 89.684 35.7314C89.7191 35.7825 89.7661 35.8242 89.8208 35.8531C89.8756 35.882 89.9366 35.8972 89.9985 35.8974L91.866 35.9026C92.2903 35.9026 92.492 35.6905 92.4711 35.2662C92.4294 34.3864 92.3372 33.5048 92.1946 32.6215C92.1216 32.165 92.3277 31.7947 92.7085 31.5573C92.8076 31.4947 92.8997 31.5043 92.9849 31.586C93.3814 31.9738 93.4335 32.3259 93.1414 32.6424C93.0753 32.7154 93.0423 32.8015 93.0423 32.9006L93.0475 35.8088C93.0475 36.0417 92.9554 36.2651 92.7912 36.4303C92.627 36.5955 92.4041 36.689 92.1712 36.6903L89.9933 36.7008C89.8706 36.7016 89.7511 36.6613 89.6537 36.5862C89.5564 36.511 89.4868 36.4054 89.456 36.2861L89.323 35.7722C89.2899 35.647 89.2299 35.6323 89.143 35.7279C88.071 36.8886 86.7252 36.7529 85.2541 36.6669C84.6047 36.6277 84.203 36.3695 83.9865 35.7435ZM80.0194 35.7488C79.8125 35.3697 79.5786 35.0298 79.3178 34.7289C79.1248 34.5064 78.9744 34.5316 78.8666 34.8046C78.4649 35.8088 79.2343 35.8531 79.889 35.9392C79.9126 35.9419 79.9365 35.9382 79.9581 35.9283C79.9797 35.9185 79.9982 35.9029 80.0117 35.8833C80.0251 35.8637 80.0329 35.8408 80.0343 35.8171C80.0356 35.7934 80.0305 35.7698 80.0194 35.7488Z" fill="#626261"/>
<path d="M121.49 37.4788C122.113 37.4092 122.408 37.0606 122.375 36.4329L122.174 32.5727C122.16 32.3154 122.247 32.0989 122.434 31.9233L122.659 31.7146C122.836 31.5477 122.928 31.585 122.935 31.8267C122.993 33.6125 123.011 35.2253 122.99 36.665C122.964 38.3265 120.58 38.9577 119.894 37.4527C119.701 37.0276 119.623 35.953 120.087 35.5852C120.233 35.4687 120.281 35.5009 120.231 35.6817C120.154 35.9443 120.111 36.2077 120.103 36.472C120.085 37.0128 120.341 37.3388 120.87 37.4501C121.075 37.4918 121.282 37.5014 121.49 37.4788Z" fill="#626261"/>
<path d="M130.518 36.0258C130.262 36.4587 129.906 36.6796 129.451 36.6883C128.394 36.7109 127.236 36.7126 125.977 36.6935C125.199 36.6813 124.795 36.2875 124.764 35.5119L124.641 32.5359C124.633 32.3151 124.713 32.136 124.884 31.9986L125.126 31.803C125.269 31.6865 125.34 31.7204 125.34 31.9048V35.2485C125.34 35.6815 125.557 35.8988 125.99 35.9006L129.816 35.9084C129.89 35.9088 129.964 35.8942 130.032 35.8654C130.101 35.8367 130.162 35.7944 130.214 35.7411C130.266 35.6879 130.307 35.6246 130.334 35.5552C130.361 35.4858 130.374 35.4117 130.372 35.3372L130.356 34.7842C130.351 34.593 130.432 34.453 130.598 34.3643L130.828 34.2417C130.981 34.16 131.058 34.2061 131.058 34.38L131.06 35.5093C131.061 35.6066 131.098 35.7001 131.166 35.7708C131.233 35.8415 131.325 35.8842 131.423 35.8901C132.379 35.9388 133.301 35.9362 134.19 35.8823C134.273 35.8773 134.354 35.8539 134.427 35.8138C134.5 35.7738 134.563 35.718 134.613 35.6505C134.662 35.583 134.695 35.5054 134.711 35.4233C134.727 35.3412 134.724 35.2566 134.704 35.1755C134.584 34.7025 134.757 34.3834 135.223 34.2183C135.334 34.18 135.389 34.22 135.387 34.3382L135.379 35.4937C135.379 35.5447 135.389 35.5953 135.408 35.6424C135.428 35.6896 135.456 35.7324 135.493 35.7683C135.529 35.8043 135.572 35.8327 135.619 35.8518C135.666 35.8709 135.717 35.8804 135.768 35.8797C136.996 35.8606 138.087 35.7945 139.041 35.6815C139.438 35.6345 139.757 35.4259 139.999 35.0555C140.059 34.9616 140.039 34.8929 139.936 34.8494C139.018 34.4565 138.195 34.3965 137.469 34.6695C137.237 34.7564 137.176 34.6886 137.283 34.466L137.453 34.1191C137.507 34.0083 137.589 33.9137 137.691 33.845C137.793 33.7763 137.912 33.7359 138.035 33.7279C138.819 33.6775 139.689 33.8844 140.645 34.3487C140.734 34.3904 140.762 34.4565 140.729 34.5469L140.424 35.3998C140.406 35.4496 140.4 35.5029 140.406 35.5554C140.412 35.6079 140.43 35.6584 140.459 35.7028C140.488 35.7472 140.526 35.7843 140.572 35.8114C140.617 35.8385 140.668 35.8547 140.721 35.8588C141.794 35.951 142.914 35.9536 144.08 35.8667C144.123 35.8636 144.164 35.8511 144.201 35.8302C144.238 35.8093 144.27 35.7805 144.294 35.7458C144.318 35.7112 144.335 35.6715 144.342 35.6297C144.349 35.5879 144.347 35.545 144.336 35.5041L144.109 34.6512C144.052 34.4304 144.099 34.2348 144.25 34.0644L144.401 33.8974C144.551 33.7305 144.651 33.7557 144.701 33.9731C144.766 34.2582 144.834 34.5469 144.907 34.839C145.205 36.0466 144.469 36.73 143.34 36.7039C142.46 36.6848 141.629 36.683 140.846 36.6987C140.432 36.7039 140.165 36.37 140.126 35.971C140.097 35.6736 139.979 35.6337 139.774 35.851C138.835 36.8474 137.531 36.7274 136.282 36.6961C135.715 36.6822 135.305 36.4266 135.053 35.9293C134.984 35.7936 134.918 35.7954 134.855 35.9345C134.645 36.4057 134.288 36.6561 133.786 36.6856C133.113 36.7222 132.434 36.7161 131.749 36.6674C131.298 36.6344 130.964 36.4213 130.747 36.0284C130.672 35.8945 130.596 35.8936 130.518 36.0258Z" fill="#626261"/>
<path d="M60.78 32.8487L60.4224 32.5209C60.3703 32.4732 60.2895 32.4768 60.2418 32.5288L59.9176 32.8826C59.8699 32.9347 59.8734 33.0155 59.9254 33.0632L60.2831 33.3909C60.3352 33.4386 60.416 33.4351 60.4637 33.3831L60.7879 33.0292C60.8356 32.9772 60.8321 32.8963 60.78 32.8487Z" fill="#626261"/>
<path d="M61.4922 32.5268L61.1711 32.8401C61.1154 32.8944 61.1144 32.9836 61.1687 33.0393L61.4893 33.3678C61.5436 33.4235 61.6328 33.4246 61.6885 33.3702L62.0095 33.0569C62.0652 33.0026 62.0663 32.9134 62.012 32.8578L61.6914 32.5292C61.637 32.4736 61.5479 32.4725 61.4922 32.5268Z" fill="#626261"/>
<path d="M102.163 32.4893L101.804 32.8465C101.761 32.8892 101.761 32.9586 101.804 33.0014L102.176 33.3746C102.218 33.4175 102.288 33.4176 102.331 33.3749L102.689 33.0177C102.732 32.975 102.732 32.9057 102.689 32.8628L102.317 32.4896C102.275 32.4467 102.205 32.4466 102.163 32.4893Z" fill="#626261"/>
<path d="M129.321 32.8476L128.993 32.5259C128.941 32.4744 128.857 32.4751 128.805 32.5275L128.462 32.8772C128.41 32.9296 128.411 33.0139 128.463 33.0653L128.791 33.3871C128.843 33.4386 128.927 33.4379 128.979 33.3855L129.322 33.0357C129.374 32.9833 129.373 32.8991 129.321 32.8476Z" fill="#626261"/>
<path d="M130.705 32.8304L130.379 32.5151C130.325 32.4631 130.239 32.4646 130.187 32.5185L129.868 32.8487C129.816 32.9026 129.818 32.9884 129.871 33.0405L130.198 33.3557C130.252 33.4077 130.338 33.4062 130.39 33.3524L130.709 33.0222C130.761 32.9683 130.759 32.8824 130.705 32.8304Z" fill="#626261"/>
<path d="M42.7672 32.8892L42.434 32.5583C42.3799 32.5045 42.2923 32.5049 42.2385 32.559L41.9261 32.8736C41.8723 32.9278 41.8726 33.0153 41.9268 33.0691L42.2599 33.4C42.3141 33.4538 42.4016 33.4534 42.4554 33.3993L42.7678 33.0847C42.8216 33.0305 42.8213 32.943 42.7672 32.8892Z" fill="#626261"/>
<path d="M44.1565 33.0261L43.8409 33.373C43.8281 33.3873 43.8125 33.3987 43.7951 33.4066C43.7777 33.4145 43.7588 33.4187 43.7397 33.419C43.7206 33.4192 43.7016 33.4155 43.684 33.408C43.6664 33.4006 43.6505 33.3896 43.6374 33.3757L43.327 33.0444C43.3022 33.0182 43.2886 32.9834 43.2891 32.9474C43.2896 32.9113 43.3041 32.8769 43.3296 32.8514L43.5826 32.6062C43.6043 32.5849 43.6324 32.5712 43.6626 32.5675C43.6927 32.5637 43.7233 32.57 43.7496 32.5854L44.1252 32.8149C44.1427 32.8254 44.1576 32.8397 44.169 32.8566C44.1803 32.8736 44.1877 32.8929 44.1907 32.9131C44.1937 32.9333 44.1922 32.9539 44.1863 32.9735C44.1803 32.993 44.1702 33.011 44.1565 33.0261Z" fill="#626261"/>
<path d="M148.051 35.8099C148.104 35.7968 148.153 35.7711 148.194 35.7351C148.235 35.6991 148.267 35.6538 148.287 35.603C148.307 35.5522 148.314 35.4973 148.308 35.443C148.303 35.3887 148.284 35.3365 148.254 35.2909C147.927 34.7866 147.553 34.3484 147.133 33.9763C147.037 33.8911 147.022 33.7946 147.088 33.6868L147.318 33.3164C147.37 33.233 147.435 33.2208 147.513 33.2799C148.52 34.0189 148.944 34.9753 148.784 36.149C148.767 36.271 148.709 36.3837 148.62 36.4689C148.531 36.554 148.416 36.6068 148.293 36.6185C147.61 36.6846 146.96 36.7011 146.342 36.668C146.285 36.6647 146.23 36.6492 146.179 36.6225C146.129 36.5957 146.085 36.5584 146.05 36.5131C146.016 36.4678 145.991 36.4155 145.979 36.3599C145.966 36.3043 145.965 36.2466 145.977 36.1907L146.001 36.076C146.046 35.8621 146.175 35.7778 146.389 35.823C146.974 35.9447 147.527 35.9403 148.051 35.8099Z" fill="#626261"/>
<path d="M99.0662 36.7268C98.6854 37.8561 98.4141 38.9386 96.9509 38.8342C96.6936 38.8151 96.4901 38.7047 96.3406 38.503C96.3295 38.4881 96.3226 38.4705 96.3208 38.452C96.319 38.4335 96.3222 38.4148 96.3302 38.3978C96.3382 38.3808 96.3506 38.3661 96.3662 38.3552C96.3817 38.3444 96.3999 38.3378 96.4188 38.3361C97.6682 38.2343 99.4757 36.685 98.3724 35.274C98.2611 35.1314 98.2559 34.9836 98.3567 34.8306L98.5263 34.5724C98.6654 34.3637 98.7714 34.3794 98.8445 34.6193C99.114 35.4939 99.5661 35.9287 100.201 35.9234C101.218 35.913 102.248 35.906 103.292 35.9026C103.695 35.9026 103.844 35.707 103.74 35.3157L103.531 34.5359C103.474 34.3255 103.532 34.1551 103.706 34.0246L103.868 33.8994C104.007 33.7951 104.103 33.8255 104.155 33.9907C104.543 35.227 104.669 36.6251 102.947 36.6929C101.681 36.7416 100.478 36.6955 99.3374 36.5546C99.2001 36.5372 99.1096 36.5946 99.0662 36.7268Z" fill="#626261"/>
<path d="M41.5034 35.5255C41.5521 35.7115 41.6721 35.8159 41.8634 35.8385C42.6563 35.9359 43.4466 35.9341 44.2343 35.8333C44.2808 35.8272 44.3255 35.8115 44.3655 35.7871C44.4055 35.7626 44.4399 35.73 44.4665 35.6914C44.4931 35.6527 44.5112 35.6089 44.5197 35.5628C44.5282 35.5167 44.527 35.4693 44.5159 35.4238L44.3282 34.6517C44.2795 34.4448 44.3334 34.2701 44.4899 34.1275L44.6464 33.984C44.8046 33.8397 44.9089 33.8719 44.9594 34.0805C45.181 34.983 45.4575 36.5192 44.0699 36.6575C43.1379 36.7514 42.2998 36.7322 41.5556 36.6001C41.3946 36.5717 41.2489 36.487 41.1443 36.3609C41.0397 36.2348 40.983 36.0756 40.9844 35.9115C40.9879 35.4646 41.0922 34.9917 41.2974 34.4926C41.3064 34.471 41.3226 34.4531 41.3434 34.4417C41.3643 34.4304 41.3885 34.4263 41.4121 34.43L41.506 34.4431C41.5843 34.4552 41.6104 34.4987 41.5843 34.5735C41.4556 34.9282 41.4287 35.2455 41.5034 35.5255Z" fill="#626261"/>
<path d="M106.345 38.0201C107.55 37.3142 107.787 36.3065 107.057 34.9972C106.982 34.8651 106.974 34.7294 107.034 34.5903L107.14 34.3399C107.21 34.1765 107.298 34.166 107.404 34.3086C108.429 35.6988 108.348 38.0697 106.473 38.7192C105.92 38.9104 105.468 38.8078 105.116 38.4114C105.014 38.2966 105.039 38.2445 105.192 38.2549C105.634 38.2897 106.018 38.2114 106.345 38.0201Z" fill="#626261"/>
<path d="M56.9726 38.1586L56.6563 37.8553C56.6002 37.8015 56.511 37.8033 56.4572 37.8595L56.1395 38.1908C56.0856 38.2469 56.0875 38.3361 56.1436 38.3899L56.4599 38.6932C56.5161 38.7471 56.6052 38.7452 56.6591 38.689L56.9768 38.3577C57.0306 38.3016 57.0288 38.2124 56.9726 38.1586Z" fill="#626261"/>
<path d="M135.316 38.0771L135.086 37.8569C135 37.7741 134.863 37.777 134.78 37.8633L134.556 38.0967C134.473 38.183 134.476 38.32 134.562 38.4028L134.792 38.623C134.878 38.7058 135.015 38.7029 135.098 38.6166L135.322 38.3832C135.405 38.2969 135.402 38.1599 135.316 38.0771Z" fill="#626261"/>
<path d="M139.087 38.1492L138.773 37.8437C138.713 37.7855 138.617 37.7868 138.559 37.8467L138.26 38.1534C138.202 38.2133 138.203 38.3091 138.263 38.3673L138.578 38.6728C138.637 38.731 138.733 38.7297 138.791 38.6698L139.09 38.3632C139.148 38.3033 139.147 38.2075 139.087 38.1492Z" fill="#626261"/>
<path d="M142.59 38.0668L142.364 37.8651C142.271 37.7816 142.128 37.7896 142.044 37.883L141.839 38.1125C141.755 38.2059 141.763 38.3493 141.857 38.4329L142.082 38.6345C142.176 38.7181 142.319 38.71 142.403 38.6166L142.608 38.3872C142.691 38.2938 142.683 38.1503 142.59 38.0668Z" fill="#626261"/>
<path d="M143.517 37.8089L143.192 38.1329C143.138 38.1868 143.137 38.2743 143.191 38.3284L143.512 38.6499C143.566 38.7039 143.653 38.7041 143.707 38.6502L144.032 38.3262C144.086 38.2723 144.087 38.1847 144.033 38.1307L143.712 37.8092C143.658 37.7551 143.571 37.755 143.517 37.8089Z" fill="#626261"/>
<path d="M133.935 38.1434L133.654 37.8782C133.586 37.8139 133.479 37.8169 133.415 37.8849L133.164 38.1502C133.1 38.2182 133.103 38.3255 133.171 38.3899L133.451 38.6551C133.519 38.7194 133.626 38.7164 133.691 38.6484L133.942 38.3831C134.006 38.3151 134.003 38.2078 133.935 38.1434Z" fill="#626261"/>
<mask id="mask0_2811_3245" style="mask-type:alpha" maskUnits="userSpaceOnUse" x="0" y="15" width="38" height="28">
<path d="M8.76429 26.5719C8.7695 26.4867 8.73299 26.4094 8.65474 26.3398C8.62943 26.3176 8.61141 26.2884 8.60303 26.2558C8.59465 26.2232 8.59631 26.1888 8.60779 26.1572C8.6304 26.0998 8.6191 26.0546 8.57389 26.0216C8.50781 25.9729 8.49129 25.9103 8.52433 25.8338C8.55737 25.7608 8.56867 25.6599 8.55824 25.5312" stroke="#205BA2" stroke-width="0.521647"/>
<path d="M14.0292 15.9664C13.8519 16.0325 13.6928 16.1455 13.5519 16.3055C13.4928 16.3716 13.4789 16.4455 13.5102 16.5272C13.5832 16.7185 13.6954 16.8767 13.8467 17.0019C11.7775 17.0054 9.71695 17.0132 7.66514 17.0254C7.51908 17.0271 7.39475 17.0836 7.29216 17.1949C6.96613 17.547 6.37146 17.534 6.01934 17.2497C4.97866 16.4124 6.30886 14.8319 7.29216 15.7734C7.51386 15.9873 7.73817 15.9638 8.02247 15.956C9.44309 15.923 11.4453 15.9264 14.0292 15.9664Z" fill="#22519B"/>
<path d="M14.0245 15.9658H16.0354C15.9989 17.2456 15.9963 18.5236 16.0276 19.7999C16.0824 22.0613 16.0067 24.3043 16.0354 26.5605C16.0598 28.7079 16.0632 30.7397 16.0459 32.6559C16.0354 33.7322 16.0198 36.7143 15.9989 41.6022C15.9989 41.6908 16.0285 41.7673 16.0876 41.8317C16.2302 41.9882 16.3919 42.1116 16.5727 42.2021L13.8367 42.1942C13.5237 42.1908 13.3481 42.1038 13.3098 41.9334C13.2768 41.7943 13.2133 41.7169 13.1194 41.7013C13.0951 41.6961 13.0785 41.6778 13.0699 41.6465C13.042 41.5439 13.0777 41.4717 13.1768 41.43L13.8184 41.1509L13.8419 39.7634C13.8422 39.7505 13.84 39.7376 13.8353 39.7256C13.8306 39.7136 13.8236 39.7027 13.8146 39.6934C13.8056 39.6842 13.7948 39.6768 13.7829 39.6718C13.771 39.6668 13.7583 39.6642 13.7454 39.6642L9.50701 39.659C9.38355 39.659 9.27922 39.7051 9.19402 39.7973C8.41677 40.6502 7.21176 39.7503 7.59778 38.7722C7.78383 38.3027 8.14725 38.1063 8.68802 38.1828C9.10534 38.2428 9.21488 38.6314 9.66611 38.6288C11.0067 38.6166 12.3361 38.6175 13.6541 38.6314C13.7497 38.6314 13.7993 38.5827 13.8028 38.4853L13.8419 37.1212C13.6489 36.7769 13.6324 36.4309 13.7923 36.0831L13.8315 34.6512C13.8349 34.5312 13.7767 34.4721 13.6567 34.4739C13.049 34.4817 12.3917 34.5286 11.7944 34.4686C11.1789 34.4086 11.1111 34.9068 10.579 34.9459C9.33486 35.0398 9.04535 33.308 10.2191 33.0132C10.5894 32.9211 10.9241 33.0298 11.2232 33.3393C11.291 33.4106 11.3736 33.4453 11.471 33.4436L13.6463 33.441C13.7593 33.441 13.8158 33.3836 13.8158 33.2689L13.8002 31.404C13.3707 31.0023 13.3663 30.6719 13.7871 30.4128L13.8106 29.0148C13.8123 28.9244 13.768 28.8792 13.6776 28.8792L8.05161 28.8714C8.02031 28.428 8.14377 28.0828 8.42198 27.8359H13.7402C13.7923 27.8359 13.8193 27.8098 13.821 27.7576L13.8341 25.6685C13.8341 25.6592 13.8322 25.65 13.8285 25.6415C13.8248 25.633 13.8195 25.6252 13.8127 25.6187C13.8059 25.6121 13.7978 25.6069 13.789 25.6034C13.7801 25.5999 13.7706 25.598 13.761 25.598H11.0354C10.9164 25.5981 10.8026 25.6429 10.7172 25.7232L9.92432 26.4614C9.85477 26.5274 9.77131 26.5613 9.67393 26.5631L8.75062 26.5709C8.75583 26.4857 8.71932 26.4083 8.64107 26.3388C8.61576 26.3166 8.59774 26.2873 8.58936 26.2547C8.58098 26.2222 8.58264 26.1878 8.59412 26.1562C8.61673 26.0988 8.60543 26.0536 8.56022 26.0206C8.49414 25.9719 8.47762 25.9093 8.51066 25.8328C8.5437 25.7597 8.555 25.6589 8.54457 25.5302L9.30096 25.4911C9.37516 25.486 9.44517 25.4556 9.49918 25.405L10.2686 24.6669C10.3458 24.5949 10.4474 24.5548 10.5529 24.5547L13.7297 24.5521C13.7958 24.5521 13.8297 24.5182 13.8315 24.4504L13.8341 23.3576C13.8341 23.2897 13.8002 23.2558 13.7323 23.2558H10.6181C10.4981 23.2558 10.3982 23.3002 10.3182 23.3889C9.7913 23.9757 8.90972 23.7618 8.64629 23.042C8.40372 22.3821 8.9671 21.7196 9.64003 21.7483C9.96866 21.7613 10.133 21.9413 10.3729 22.1291C10.4442 22.1865 10.526 22.2152 10.6181 22.2152L13.6854 22.2099C13.7723 22.2099 13.8158 22.1656 13.8158 22.0769L13.8341 20.6424C13.6724 20.3555 13.6732 20.0077 13.8367 19.5991L13.8419 17.0013C13.6906 16.8761 13.5785 16.7179 13.5054 16.5266C13.4741 16.4449 13.488 16.371 13.5472 16.3049C13.688 16.1449 13.8471 16.0319 14.0245 15.9658Z" fill="#1D64A9"/>
<path d="M16.0443 15.9658L21.2947 15.9763C20.7574 15.8945 20.454 16.3518 20.3844 17.3482C20.2992 18.5706 20.3384 20.0321 20.5018 21.7326L19.9645 21.7509C19.8793 21.7526 19.8367 21.797 19.8367 21.8839V36.2422C19.8367 36.3431 19.8871 36.3944 19.988 36.3961L21.6599 36.4274C21.6772 36.4552 21.7025 36.4761 21.7355 36.49C21.812 36.5265 21.8198 36.5752 21.759 36.6361C21.7433 36.6517 21.7277 36.6683 21.712 36.6856C21.6929 36.7065 21.6833 36.7317 21.6833 36.7613L21.7798 39.1974C21.7833 39.2495 21.7677 39.2965 21.7329 39.3382C21.7085 39.366 21.6903 39.3956 21.6781 39.4269C21.6642 39.4651 21.659 39.5043 21.6625 39.5443C21.7251 40.1563 21.7172 40.7797 21.639 41.4144C21.6199 41.5656 21.6572 41.7117 21.7511 41.8526C21.885 42.049 22.0737 42.1629 22.3171 42.1942L16.5816 42.2021C16.4008 42.1116 16.2391 41.9882 16.0965 41.8317C16.0374 41.7673 16.0078 41.6908 16.0078 41.6022C16.0287 36.7143 16.0443 33.7322 16.0548 32.6559C16.0721 30.7397 16.0687 28.7079 16.0443 26.5605C16.0156 24.3043 16.0913 22.0613 16.0365 19.7999C16.0052 18.5236 16.0078 17.2456 16.0443 15.9658Z" fill="#166FB3"/>
<path d="M21.29 15.9761L25.5049 16.0048C25.5345 16.043 25.5536 16.0735 25.5623 16.0961C25.5762 16.1308 25.5658 16.1552 25.531 16.1691C25.5084 16.1778 25.484 16.1795 25.458 16.1743C25.3971 16.1639 25.3475 16.1839 25.3093 16.2343C25.1145 16.4934 25.1215 16.7247 25.3302 16.9281C25.3893 16.9872 25.4171 17.0585 25.4136 17.142C25.3719 18.1974 25.3432 19.299 25.3276 20.4466C25.3258 20.5631 25.2702 20.6179 25.1606 20.6109C25.0685 20.604 25.038 20.6431 25.0693 20.7283C25.0919 20.7961 25.0806 20.8552 25.0354 20.9057C24.9572 20.9943 24.9554 21.0839 25.0302 21.1743C25.1624 21.3343 25.1737 21.5203 25.0641 21.7325H20.4971C20.3337 20.0319 20.2945 18.5704 20.3797 17.348C20.4493 16.3517 20.7527 15.8944 21.29 15.9761Z" fill="#2387C6"/>
<path d="M25.5061 16.0059C31.8988 16.6005 36.3276 21.3658 37.0188 27.7481C37.0275 27.8386 36.9866 27.8838 36.8962 27.8838H31.4137C31.3094 27.8838 31.2485 27.8316 31.2311 27.7273C30.6521 24.2044 28.5968 22.2065 25.0653 21.7335C25.1748 21.5214 25.1635 21.3354 25.0314 21.1754C24.9566 21.085 24.9583 20.9954 25.0366 20.9067C25.0818 20.8563 25.0931 20.7972 25.0705 20.7294C25.0392 20.6442 25.0696 20.605 25.1618 20.612C25.2713 20.619 25.327 20.5642 25.3287 20.4477C25.3444 19.3001 25.373 18.1985 25.4148 17.143C25.4183 17.0596 25.3904 16.9883 25.3313 16.9292C25.1227 16.7257 25.1157 16.4945 25.3104 16.2354C25.3487 16.185 25.3983 16.165 25.4591 16.1754C25.4852 16.1806 25.5095 16.1789 25.5321 16.1702C25.5669 16.1563 25.5774 16.1319 25.5634 16.0971C25.5548 16.0745 25.5356 16.0441 25.5061 16.0059Z" fill="#209CD7"/>
<path d="M13.8399 19.5991C13.6765 20.0077 13.6756 20.3555 13.8373 20.6424C12.8636 20.6528 11.9029 20.6546 10.9552 20.6476C10.7831 20.6459 10.624 20.5676 10.4779 20.4129C10.2397 20.159 9.99105 19.9199 9.73196 19.6956C9.65286 19.6282 9.55299 19.5912 9.45028 19.5913L4.24945 19.5887C4.14512 19.5887 4.05992 19.6287 3.99385 19.7087C3.18008 20.6711 1.72207 19.4739 2.4602 18.488C2.7758 18.0655 3.43568 17.9116 3.85561 18.2976C3.91995 18.3567 3.98689 18.4124 4.05645 18.4645C4.13295 18.5237 4.21989 18.5532 4.31727 18.5532C6.22824 18.548 8.03748 18.548 9.745 18.5532C10.2406 18.5558 10.7205 19.1635 11.0491 19.4765C11.1326 19.5565 11.2326 19.5965 11.3491 19.5965L13.8399 19.5991Z" fill="#22519B"/>
<path d="M8.54942 25.531C8.55986 25.6596 8.54855 25.7605 8.51552 25.8335C8.48248 25.91 8.499 25.9726 8.56507 26.0213C8.61028 26.0544 8.62158 26.0996 8.59898 26.157C8.5875 26.1886 8.58584 26.2229 8.59421 26.2555C8.60259 26.2881 8.62062 26.3174 8.64593 26.3395C8.72418 26.4091 8.76069 26.4865 8.75547 26.5717L2.08622 26.5691C1.99058 26.5691 1.90451 26.5977 1.828 26.6551C1.58544 26.8377 1.42112 27.0385 1.08466 27.0464C0.64995 27.0551 0.335222 26.8707 0.140474 26.4934C-0.276844 25.6849 0.677771 24.6833 1.47589 25.1971C1.59587 25.2736 1.71324 25.3562 1.828 25.4449C1.90451 25.504 1.99058 25.5336 2.08622 25.5336L8.54942 25.531Z" fill="#22519B"/>
<path d="M8.43263 27.836C8.15442 28.0829 8.03097 28.4281 8.06226 28.8715L7.38412 28.895C7.29023 28.8985 7.21198 28.935 7.14938 29.0045C6.59383 29.6383 5.634 29.3175 5.46186 28.5298C5.30015 27.7995 5.97046 27.2309 6.6799 27.3874C6.94072 27.4474 7.04245 27.6091 7.24067 27.7526C7.31544 27.8065 7.39977 27.8334 7.49367 27.8334L8.43263 27.836Z" fill="#22519B"/>
<path d="M13.7933 30.4128C13.3725 30.6719 13.3768 31.0023 13.8063 31.404C12.9213 31.4457 12.0805 31.45 11.2842 31.417C10.5017 31.3857 10.0844 32.0482 9.57055 32.5203C9.41794 32.6613 9.21799 32.7403 9.00978 32.742C7.69697 32.7524 6.3859 32.7516 5.07656 32.7394C4.63838 32.7342 4.59143 33.0472 4.23932 33.115C3.10734 33.3393 2.49963 31.9752 3.46467 31.3257C3.99414 30.9684 4.36973 31.2084 4.79226 31.5813C4.88616 31.6613 4.99571 31.7013 5.1209 31.7013C6.34503 31.6909 7.4944 31.6857 8.56899 31.6857C8.6918 31.6856 8.81322 31.6607 8.92579 31.6122C9.03837 31.5638 9.13973 31.4929 9.22366 31.404C9.64097 30.9658 10.0974 30.3633 10.7625 30.3633C11.738 30.3668 12.7483 30.3833 13.7933 30.4128Z" fill="#22519B"/>
<path d="M29.1689 41.2737C29.1098 41.2372 29.0446 41.219 28.9733 41.219C28.8933 41.2172 28.8907 41.2016 28.9655 41.172C28.9794 41.1651 28.9907 41.1546 28.9994 41.1407C29.0342 41.0764 29.0377 41.0007 29.0098 40.9138C28.9159 40.6243 29.0281 40.3948 29.0046 40.1052C28.8899 38.7316 28.8681 37.8952 28.9394 37.5961C29.1081 36.9006 29.1133 36.2233 28.9551 35.5643C28.9377 35.4861 28.9394 35.4069 28.9603 35.327C28.9898 35.2087 29.0516 35.1287 29.1455 35.087C29.1785 35.0714 29.1802 35.054 29.1507 35.0348C29.0794 34.9862 29.102 34.9044 29.2185 34.7897C29.2341 34.7758 29.2508 34.7644 29.268 34.7558C29.5497 34.6132 29.6619 34.4332 29.6045 34.2159C30.3974 33.2369 30.9034 32.164 31.1225 30.9973C31.1399 30.9051 31.1955 30.8591 31.2894 30.8591L36.8841 30.8564C36.8957 30.8564 36.9071 30.8587 36.9177 30.8634C36.9282 30.8681 36.9376 30.875 36.9453 30.8837C36.953 30.8923 36.9587 30.9025 36.9621 30.9136C36.9655 30.9246 36.9664 30.9363 36.965 30.9477C36.3755 35.5539 33.5143 39.5367 29.1689 41.2737Z" fill="#209CD7"/>
<path d="M29.6058 34.2158C29.6632 34.4332 29.5511 34.6131 29.2694 34.7557C29.2521 34.7644 29.2354 34.7758 29.2198 34.7896C29.1033 34.9044 29.0807 34.9861 29.152 35.0348C29.1816 35.0539 29.1798 35.0713 29.1468 35.087C29.0529 35.1287 28.9912 35.2087 28.9616 35.3269C28.9407 35.4069 28.939 35.486 28.9564 35.5643C29.1146 36.2233 29.1094 36.9006 28.9407 37.5961C28.8694 37.8952 28.8912 38.7315 29.0059 40.1052C29.0294 40.3947 28.9173 40.6243 29.0111 40.9138C29.039 41.0007 29.0355 41.0763 29.0007 41.1407C28.992 41.1546 28.9807 41.165 28.9668 41.172C28.892 41.2015 28.8946 41.2172 28.9746 41.2189C29.0459 41.2189 29.1111 41.2372 29.1703 41.2737C27.0106 42.1631 24.6241 42.3092 22.3158 42.1944C22.0724 42.1631 21.8837 42.0492 21.7498 41.8527C21.6559 41.7119 21.6185 41.5658 21.6377 41.4145C21.7159 40.7799 21.7237 40.1565 21.6611 39.5444C21.6577 39.5045 21.6629 39.4653 21.6768 39.4271C21.689 39.3958 21.7072 39.3662 21.7316 39.3384C21.7663 39.2967 21.782 39.2497 21.7785 39.1975L21.682 36.7615C21.682 36.7319 21.6916 36.7067 21.7107 36.6858C21.7263 36.6684 21.742 36.6519 21.7576 36.6363C21.8185 36.5754 21.8107 36.5267 21.7342 36.4902C21.7011 36.4763 21.6759 36.4554 21.6585 36.4276C22.4862 36.4189 23.3104 36.4241 24.1311 36.4433C26.329 36.4919 28.1539 35.7495 29.6058 34.2158Z" fill="#2387C6"/>
<path d="M13.7972 36.0839C13.6372 36.4317 13.6538 36.7777 13.8468 37.122C11.7115 37.1255 9.58491 37.1255 7.46703 37.122C6.96625 37.1194 6.68456 36.2117 5.97512 36.2144C5.2848 36.2178 4.63101 36.217 4.01372 36.2117C3.89027 36.2117 3.78768 36.2578 3.70595 36.35C3.1504 36.976 2.17753 36.6343 2.01842 35.857C1.85411 35.0459 2.82437 34.3416 3.51816 34.8711C3.61032 34.9407 3.70073 35.012 3.78941 35.085C3.86418 35.1441 3.94852 35.1737 4.04241 35.1737L6.51241 35.1711C6.61437 35.1702 6.71537 35.192 6.80824 35.2348C6.9011 35.2777 6.98354 35.3405 7.04971 35.4188C7.40704 35.8388 7.70438 36.0839 8.30949 36.0839C10.1074 36.0857 11.9367 36.0857 13.7972 36.0839Z" fill="#22519B"/>
<path d="M13.8261 41.1518L13.1845 41.4308C13.0854 41.4726 13.0497 41.5447 13.0775 41.6473C13.0862 41.6786 13.1027 41.6969 13.1271 41.7021C13.221 41.7177 13.2844 41.7951 13.3175 41.9342C13.3557 42.1046 13.5314 42.1916 13.8444 42.195L8.74003 42.1872C8.59745 42.1855 8.47921 42.2377 8.38531 42.3437C8.20274 42.5472 7.98278 42.6463 7.72543 42.6411C6.20222 42.6072 6.48391 40.4241 7.89236 40.7057C8.15579 40.7579 8.27577 40.9118 8.47921 41.0553C8.55572 41.1092 8.64179 41.1361 8.73743 41.1361L13.8261 41.1518Z" fill="#22519B"/>
</mask>
<g mask="url(#mask0_2811_3245)">
<rect x="-7.78125" y="8.44043" width="48.774" height="38.3411" fill="url(#paint0_linear_2811_3245)"/>
</g>
<defs>
<linearGradient id="paint0_linear_2811_3245" x1="0.825925" y1="27.7414" x2="37.9933" y2="27.7414" gradientUnits="userSpaceOnUse">
<stop stop-color="#2D3D8A"/>
<stop offset="1" stop-color="#1BA9E1"/>
</linearGradient>
</defs>
</svg>
